<svg class="svg-icon" style="width: 1em; height: 1em;vertical-align: middle;fill: currentColor;overflow: hidden;" viewBox="0 0 1024 1024" version="1.1" xmlns="http://www.w3.org/2000/svg"><path d="M850.517333 382.378667l-35.392 495.402666c-4.117333 57.6-53.333333 103.552-110.933333 103.552H319.786667c-57.706667 0-106.816-45.802667-110.933334-103.552L173.482667 382.378667A106.837333 106.837333 0 0 1 85.333333 277.333333v-42.666666a106.730667 106.730667 0 0 1 103.850667-106.624l138.005333-17.28A106.730667 106.730667 0 0 1 426.730667 42.666667h170.538666a106.858667 106.858667 0 0 1 99.52 68.117333l138.026667 17.258667A106.816 106.816 0 0 1 938.666667 234.666667v42.666666a106.730667 106.730667 0 0 1-88.149334 105.045334zM259.157333 384l34.837334 487.701333c0.938667 13.141333 12.906667 24.298667 25.813333 24.298667H704.213333c12.8 0 24.896-11.306667 25.813334-24.298667L764.842667 384H259.157333z m316.992 124.458667a42.666667 42.666667 0 1 1 85.034667 7.082666l-21.333333 256a42.666667 42.666667 0 1 1-85.034667-7.082666l21.333333-256z m-213.333333 7.082666a42.666667 42.666667 0 1 1 85.034667-7.082666l21.333333 256a42.666667 42.666667 0 1 1-85.034667 7.082666l-21.333333-256zM192.149333 213.333333C180.266667 213.333333 170.666667 222.912 170.666667 234.666667v42.666666c0 11.690667 9.642667 21.333333 21.482666 21.333334h639.701334C843.733333 298.666667 853.333333 289.088 853.333333 277.333333v-42.666666c0-11.690667-9.642667-21.333333-21.482666-21.333334a42.666667 42.666667 0 0 1-5.312-0.32l-170.496-21.333333A42.666667 42.666667 0 0 1 618.666667 149.333333c0-11.712-9.621333-21.333333-21.397334-21.333333h-170.538666A21.333333 21.333333 0 0 0 405.333333 149.333333a42.666667 42.666667 0 0 1-37.376 42.346667l-170.496 21.333333a42.666667 42.666667 0 0 1-5.312 0.32z"  /></svg>